<svg aria-hidden="true" style="position:absolute;width:0;height:0" xmlns="http://www.w3.org/2000/svg" overflow="hidden"><defs><symbol id="icon-favorite-heart" viewBox="0 0 32 32"><path fill="var(--color1, #ff6b09)" d="M16 30.72l-2.24-2.24C5.44 21.12 0 16.16 0 10.08c0-4.96 3.84-8.8 8.8-8.8 2.72 0 5.44 1.28 7.2 3.36 1.76-2.08 4.48-3.36 7.2-3.36 4.96 0 8.8 3.84 8.8 8.8 0 6.08-5.44 11.04-13.76 18.4L16 30.72z"/></symbol><symbol id="icon-copirite" viewBox="0 0 32 32"><path d="M13.12 14.29c.075-.495.24-.93.45-1.305s.51-.69.885-.93c.36-.225.81-.33 1.365-.345.345.015.66.075.945.195.3.135.57.315.78.54s.375.495.51.795c.135.3.195.63.21.96h2.685c-.03-.705-.165-1.35-.42-1.935s-.6-1.095-1.05-1.515c-.45-.42-.99-.75-1.62-.99s-1.32-.345-2.085-.345c-.975 0-1.83.165-2.55.51s-1.32.795-1.8 1.38c-.48.585-.84 1.26-1.065 2.04s-.36 1.59-.36 2.46v.405c0 .87.12 1.68.345 2.46s.585 1.455 1.065 2.025c.48.57 1.08 1.035 1.8 1.365s1.575.51 2.55.51c.705 0 1.365-.12 1.98-.345s1.155-.54 1.62-.945c.465-.405.84-.87 1.11-1.41s.435-1.11.45-1.725h-2.685c-.015.315-.09.6-.225.87s-.315.495-.54.69c-.225.195-.48.345-.78.45-.285.105-.585.135-.9.15-.54-.015-.99-.12-1.335-.345-.375-.24-.675-.555-.885-.93s-.375-.825-.45-1.32a10.11 10.11 0 01-.12-1.5v-.405c0-.525.045-1.02.12-1.515zM16 1C7.72 1 1 7.72 1 16s6.72 15 15 15c8.28 0 15-6.72 15-15S24.28 1 16 1zm0 27C9.385 28 4 22.615 4 16S9.385 4 16 4s12 5.385 12 12-5.385 12-12 12z"/></symbol><symbol id="icon-right" viewBox="0 0 32 32"><path d="M11.453 9.88L13.333 8l8 8-8 8-1.88-1.88L17.56 16l-6.107-6.12z"/></symbol><symbol id="icon-edit" viewBox="0 0 30 32"><path fill="var(--color2, #fff)" d="M29.867 28.8H0v2.773h29.867V28.8zM20.465 2.035L5.042 17.458v7.074h7.074L27.539 9.109l-7.074-7.074zm-9.386 19.998H7.542v-3.537L20.465 5.573l3.537 3.537-12.923 12.923z"/></symbol><symbol id="icon-file" viewBox="0 0 32 32"><path fill="var(--color3, #bbb)" d="M20.8 0H1.6v32h28.8V9.6L20.8 0zm0 4.528L25.872 9.6H20.8V4.528zM27.2 28.8H4.8V3.2h12.8v9.6h9.6v16z"/><path fill="var(--color3, #bbb)" d="M22.016 15.473l-2.256-2.272-3.728 3.728-3.904-3.904-2.256 2.272 3.888 3.888-3.696 3.712 2.256 2.256 3.712-3.696 3.728 3.728 2.256-2.272-3.728-3.728 3.728-3.712z"/></symbol><symbol id="icon-google-symbol" viewBox="0 0 32 32"><path fill="var(--color4, #2196f3)" d="M31.743 13.038c.142 0 .257.115.257.258V16c0 1.012-.094 2.002-.274 2.962C30.331 26.419 23.762 32.054 15.888 32A15.961 15.961 0 01.001 15.964C.02 7.144 7.177 0 16.001 0c4.323 0 8.246 1.715 11.126 4.501a.258.258 0 01.004.369l-3.826 3.826a.257.257 0 01-.358.005 10.04 10.04 0 00-6.946-2.777A10.046 10.046 0 005.925 15.931c-.038 5.597 4.488 10.146 10.076 10.146 4.534 0 8.369-2.995 9.634-7.115h-9.376a.258.258 0 01-.258-.258v-5.408c0-.142.115-.258.258-.258h15.485z"/><path fill="var(--color5, #1e88e5)" d="M31.742 13.038H29.81c.142 0 .258.115.258.258V16c0 1.012-.094 2.002-.274 2.962-1.331 7.114-7.371 12.57-14.761 13.009.283.017.567.026.854.028 7.874.054 14.444-5.581 15.839-13.038.18-.96.274-1.95.274-2.962v-2.704a.258.258 0 00-.258-.258z"/><path fill="var(--color6, #f44336)" d="M6.848 11.78L1.989 8.269C4.715 3.338 9.968 0 16.001 0c4.323 0 8.246 1.715 11.126 4.501a.258.258 0 01.004.369l-3.826 3.826a.257.257 0 01-.358.005 10.04 10.04 0 00-6.946-2.777 10.076 10.076 0 00-9.152 5.857z"/><path fill="var(--color7, #e53935)" d="M5.445 10.767l1.403 1.014a10.083 10.083 0 018.104-5.802l.081-.009c-.317-.03-.639-.046-.964-.046a10.048 10.048 0 00-8.624 4.843zM25.194 4.501a.258.258 0 01.004.369l-3.105 3.105c.297.226.582.468.852.726.101.096.26.094.359-.005L27.13 4.87a.259.259 0 00-.004-.369A15.952 15.952 0 0015.034.03a15.95 15.95 0 0110.16 4.471z"/><path fill="var(--color8, #4caf50)" d="M27.737 26.874A15.955 15.955 0 0116 32c-6.264 0-11.687-3.6-14.314-8.844l4.961-3.4a10.08 10.08 0 0016.231 3.607l4.859 3.51z"/><path fill="var(--color9, #43a047)" d="M6.647 19.756l-1.463 1.003a10.075 10.075 0 009.848 5.272 10.084 10.084 0 01-8.385-6.274zM16 32c4.638 0 8.815-1.974 11.737-5.126l-1.19-.86a15.972 15.972 0 01-11.51 5.957c.319.019.64.029.963.029z"/><path fill="var(--color10, #ffc107)" d="M5.924 16c0 1.328.257 2.595.724 3.756l-4.961 3.4A15.928 15.928 0 01.001 16c0-2.804.721-5.439 1.988-7.731l4.859 3.511A10.034 10.034 0 005.924 16z"/><path fill="var(--color11, #ffb300)" d="M5.184 20.759l1.463-1.003A10.044 10.044 0 015.923 16c0-1.507.331-2.937.924-4.22l-1.403-1.014a10.054 10.054 0 00-1.452 5.164 10.036 10.036 0 001.192 4.829z"/></symbol><symbol id="icon-plus" viewBox="0 0 32 32"><path fill="none" stroke="var(--color2, #fff)" stroke-width="4.571" d="M16 0v32M0 16h32"/></symbol><symbol id="icon-group" viewBox="0 0 32 32"><path fill="var(--color12, #878686)" d="M25.436 21.333c-1.623 0-3.079.73-4.058 1.878l-9.632-5.955a5.313 5.313 0 000-2.512l9.632-5.955a5.322 5.322 0 004.058 1.878c2.941 0 5.333-2.393 5.333-5.333S28.376.001 25.436.001s-5.333 2.393-5.333 5.333c0 .433.053.853.151 1.256l-9.631 5.955a5.322 5.322 0 00-4.058-1.878c-2.941 0-5.333 2.393-5.333 5.333s2.393 5.333 5.333 5.333c1.624 0 3.079-.73 4.058-1.878l9.631 5.955a5.313 5.313 0 00-.151 1.256c0 2.941 2.393 5.333 5.333 5.333s5.333-2.393 5.333-5.333a5.34 5.34 0 00-5.333-5.333zm0-18.871c1.584 0 2.872 1.288 2.872 2.872s-1.288 2.872-2.872 2.872c-1.583 0-2.872-1.288-2.872-2.872s1.288-2.872 2.872-2.872zM6.564 18.872c-1.583 0-2.872-1.288-2.872-2.872s1.288-2.872 2.872-2.872c1.583 0 2.872 1.288 2.872 2.872s-1.288 2.872-2.872 2.872zm18.872 10.666c-1.583 0-2.872-1.288-2.872-2.872s1.288-2.872 2.872-2.872c1.584 0 2.872 1.288 2.872 2.872s-1.288 2.872-2.872 2.872z"/></symbol><symbol id="icon-user" viewBox="0 0 27 32"><path d="M26.547 31.17h-3.088c0-5.14-4.37-9.321-9.744-9.321s-9.743 4.182-9.743 9.321H.884c0-6.822 5.758-12.368 12.832-12.368 7.073 0 12.831 5.545 12.831 12.368zM13.716 17.812c-4.668 0-8.467-3.751-8.467-8.356C5.247 4.849 9.047 1.1 13.716 1.1c4.671 0 8.471 3.748 8.471 8.356s-3.8 8.356-8.471 8.356zm0-13.665c-2.968 0-5.381 2.381-5.381 5.309s2.413 5.309 5.381 5.309c2.969 0 5.383-2.381 5.383-5.309s-2.416-5.309-5.383-5.309z"/></symbol><symbol id="icon-logo" viewBox="0 0 121 32"><path d="M1.087 1.969h6.38v22.37h13.824v5.199H1.087V1.969zm37.447 28.042c-2.862 0-5.448-.617-7.759-1.851-2.284-1.234-4.083-2.927-5.396-5.081-1.287-2.179-1.93-4.621-1.93-7.326s.643-5.133 1.93-7.286c1.313-2.179 3.111-3.886 5.396-5.12 2.311-1.234 4.897-1.851 7.759-1.851s5.435.617 7.719 1.851c2.284 1.234 4.083 2.941 5.396 5.12 1.313 2.153 1.969 4.582 1.969 7.286s-.657 5.146-1.969 7.326c-1.313 2.153-3.111 3.847-5.396 5.081s-4.857 1.851-7.719 1.851zm0-5.435c1.628 0 3.098-.368 4.411-1.103a8.051 8.051 0 003.072-3.151c.761-1.339 1.142-2.862 1.142-4.569s-.381-3.23-1.142-4.569a7.781 7.781 0 00-3.072-3.111c-1.313-.761-2.783-1.142-4.411-1.142s-3.098.381-4.411 1.142c-1.313.735-2.35 1.772-3.111 3.111-.735 1.339-1.103 2.862-1.103 4.569s.367 3.23 1.103 4.569a8.345 8.345 0 003.111 3.151c1.313.735 2.783 1.103 4.411 1.103zm39.296-9.255h5.829v11.185c-1.497 1.129-3.23 1.996-5.199 2.599s-3.951.906-5.947.906c-2.862 0-5.435-.604-7.719-1.812-2.284-1.234-4.083-2.928-5.396-5.081-1.287-2.179-1.93-4.634-1.93-7.365s.643-5.172 1.93-7.326c1.313-2.179 3.124-3.873 5.435-5.081 2.311-1.234 4.91-1.851 7.798-1.851 2.415 0 4.608.407 6.577 1.221s3.623 1.996 4.962 3.545l-4.096 3.781c-1.969-2.074-4.345-3.111-7.129-3.111-1.759 0-3.321.368-4.687 1.103s-2.429 1.772-3.19 3.111c-.761 1.339-1.142 2.875-1.142 4.608 0 1.707.381 3.23 1.142 4.569s1.812 2.389 3.151 3.151c1.365.735 2.914 1.103 4.647 1.103 1.838 0 3.492-.394 4.962-1.182V15.32zm25.895 14.69c-2.862 0-5.448-.617-7.759-1.851-2.284-1.234-4.083-2.927-5.396-5.081-1.286-2.179-1.93-4.621-1.93-7.326s.643-5.133 1.93-7.286c1.313-2.179 3.111-3.886 5.396-5.12 2.311-1.234 4.897-1.851 7.759-1.851s5.435.617 7.72 1.851c2.284 1.234 4.083 2.941 5.396 5.12 1.313 2.153 1.969 4.582 1.969 7.286s-.656 5.146-1.969 7.326c-1.313 2.153-3.111 3.847-5.396 5.081s-4.858 1.851-7.72 1.851zm0-5.435c1.628 0 3.098-.368 4.411-1.103a8.051 8.051 0 003.072-3.151c.761-1.339 1.142-2.862 1.142-4.569s-.381-3.23-1.142-4.569a7.781 7.781 0 00-3.072-3.111c-1.313-.761-2.783-1.142-4.411-1.142s-3.098.381-4.411 1.142c-1.313.735-2.35 1.772-3.111 3.111-.735 1.339-1.103 2.862-1.103 4.569s.368 3.23 1.103 4.569a8.352 8.352 0 003.111 3.151c1.313.735 2.783 1.103 4.411 1.103z"/></symbol><symbol id="icon-logout" viewBox="0 0 32 32"><path d="M3.236 21.654v7.111h25.529V3.236H3.236v7.111H.32V3.556A3.235 3.235 0 013.556.32h24.889a3.235 3.235 0 013.236 3.236v24.889a3.235 3.235 0 01-3.235 3.236H3.557a3.235 3.235 0 01-3.236-3.236v-6.791h2.916zm14.728-7.112l-4.915-4.916 2.063-2.063 8.436 8.436-8.436 8.436-2.063-2.063 4.915-4.916H.32v-2.915h17.644z"/></symbol><symbol id="icon-search" viewBox="0 0 32 32"><path d="M22.222 19.556h-1.404l-.498-.48a11.507 11.507 0 002.791-7.52C23.111 5.174 17.938 0 11.555 0S-.001 5.173-.001 11.556c0 6.382 5.173 11.556 11.556 11.556 2.862 0 5.493-1.049 7.52-2.791l.48.498v1.404l8.889 8.871 2.649-2.649-8.871-8.889zm-10.666 0c-4.427 0-8-3.573-8-8s3.573-8 8-8 8 3.573 8 8-3.573 8-8 8z"/></symbol><symbol id="icon-burger-menu" viewBox="0 0 51 32"><path d="M1.6 32h48v-5.333h-48V32zm0-13.333h48v-5.333h-48v5.333zM1.6 0v5.333h48V0h-48z"/></symbol><symbol id="icon-heart" viewBox="0 0 37 32"><path fill="var(--color12, #878686)" stroke="var(--color12, #878686)" stroke-width=".686" d="M18.286 29.714c-.456 0-.895-.159-1.237-.448a369.805 369.805 0 00-3.639-3.015l-.006-.005c-3.224-2.647-6.008-4.933-7.945-7.184-2.165-2.517-3.174-4.904-3.174-7.511 0-2.533.902-4.87 2.539-6.581 1.656-1.731 3.929-2.684 6.401-2.684a8.25 8.25 0 015.028 1.672 10.08 10.08 0 012.033 2.045 10.08 10.08 0 012.033-2.045 8.243 8.243 0 015.028-1.672c2.471 0 4.744.953 6.401 2.684 1.637 1.711 2.538 4.048 2.538 6.581 0 2.607-1.008 4.994-3.174 7.511-1.937 2.252-4.721 4.538-7.944 7.184-1.102.904-2.35 1.929-3.645 3.021a1.923 1.923 0 01-1.237.447zM11.225 4.092c-1.942 0-3.725.747-5.023 2.102C4.885 7.57 4.16 9.473 4.16 11.551c0 2.193.846 4.154 2.743 6.359 1.833 2.131 4.56 4.37 7.717 6.962l.006.005c1.104.906 2.355 1.934 3.657 3.031a441.229 441.229 0 013.669-3.036c3.157-2.592 5.883-4.831 7.717-6.962 1.896-2.205 2.742-4.166 2.742-6.359 0-2.078-.725-3.981-2.042-5.357-1.297-1.356-3.081-2.102-5.023-2.102a6.369 6.369 0 00-3.881 1.295c-1.028.766-1.743 1.734-2.163 2.411-.216.348-.596.556-1.016.556s-.801-.208-1.016-.556c-.419-.677-1.135-1.646-2.163-2.411a6.369 6.369 0 00-3.881-1.295z"/></symbol><symbol id="icon-full-screen" viewBox="0 0 30 32"><path fill="var(--color2, #fff)" d="M4.22 20.22H0v10.549h10.549v-4.22h-6.33v-6.33zM0 11.78h4.22V5.45h6.33V1.23H.001v10.549zm25.319 14.769h-6.33v4.22h10.549V20.22h-4.22v6.33zm-6.33-25.318v4.22h6.33v6.33h4.22V1.232H18.99z"/></symbol><symbol id="icon-clear" viewBox="0 0 40 32"><path d="M8 16H0l10 10 10-10h-8c0-6.62 5.38-12 12-12s12 5.38 12 12-5.38 12-12 12v4c8.84 0 16-7.16 16-16S32.84 0 24 0 8 7.16 8 16z"/></symbol><symbol id="icon-left" viewBox="0 0 19 32"><path d="M17.784 4.984L14.4 1.6 0 16l14.4 14.4 3.384-3.384L6.792 16 17.784 4.984z"/></symbol><symbol id="icon-close" viewBox="0 0 32 32"><path d="M32 3.223L28.777 0 16 12.777 3.223 0 0 3.223 12.777 16 0 28.777 3.223 32 16 19.223 28.777 32 32 28.777 19.223 16 32 3.223z"/></symbol></defs></svg>